<svg width="21" height="21" viewBox="0 0 21 21" fill="none" xmlns="http://www.w3.org/2000/svg">
<path d="M10.4825 16.7088C10.3127 16.7088 10.1445 16.6779 9.97762 16.6161C9.81079 16.5548 9.66408 16.4606 9.5375 16.3334L8.533 15.4278C6.9755 14.0132 5.60175 12.6374 4.41175 11.3004C3.22058 9.96402 2.625 8.57481 2.625 7.13281C2.625 6.01981 3.003 5.08531 3.759 4.32931C4.515 3.57331 5.4495 3.19531 6.5625 3.19531C7.20067 3.19531 7.86538 3.3566 8.55663 3.67919C9.24788 4.00177 9.89567 4.61019 10.5 5.50444C11.1049 4.61019 11.7527 4.00177 12.4434 3.67919C13.134 3.3566 13.7987 3.19531 14.4375 3.19531C15.5505 3.19531 16.485 3.57331 17.241 4.32931C17.997 5.08531 18.375 6.01981 18.375 7.13281C18.375 8.60806 17.7552 10.0261 16.5156 11.3871C15.276 12.748 13.9192 14.0961 12.4451 15.4313L11.4459 16.3334C11.3187 16.4606 11.1691 16.5548 10.997 16.6161C10.8249 16.6773 10.6537 16.7082 10.4834 16.7088" fill="#9E9E9E"/>
</svg>
