<svg width="512" height="512" viewBox="0 0 512 512" fill="none" xmlns="http://www.w3.org/2000/svg">
<path d="M149.426 97.7743C158.57 105.26 165.529 115.723 169 127.001C169.223 127.656 169.446 128.311 169.676 128.985C173.987 144.117 171.247 161.741 163.813 175.313C154.135 190.633 140.87 200.383 123.187 204.61C112.6 206.501 99.9522 206.127 90.0004 202.001C88.8957 201.548 87.791 201.096 86.6527 200.63C70.9502 193.505 60.5308 182.239 54.1254 166.126C48.8422 151.886 49.1581 135.036 55.0004 121.001C62.4471 105.336 73.9709 94.22 90.1527 88.0009C91.0925 87.6709 92.0322 87.3409 93.0004 87.0009C94.0542 86.6296 94.0542 86.6296 95.1293 86.2509C114.044 80.9207 134.011 86.5047 149.426 97.7743Z" fill="#F4BFAD"/>
<path d="M294.268 20.5843C306.203 30.2361 313.516 44.0021 315.999 58.9983C317.516 76.172 314.411 92.5309 303.483 106.311C293.767 117.759 279.757 126.859 264.502 128.221C245.993 129.014 230.285 126.167 215.811 113.811C204.44 103.035 196.358 89.2709 195.698 73.3851C195.678 71.8188 195.675 70.2522 195.686 68.6858C195.692 67.8563 195.697 67.0267 195.703 66.1719C196.025 49.777 202.547 35.7209 213.999 23.9984C237.597 3.51162 268.905 2.86069 294.268 20.5843Z" fill="#F9DACF"/>
<path d="M169.443 368.783C179.092 376.75 186.083 388.559 188.002 401.002C189.072 417.842 185.94 432.114 174.752 445.189C165.168 455.338 153.176 460.977 139.187 461.545C123.21 461.681 109.934 456.355 98.2946 445.455C87.8485 434.279 84.4682 420.293 84.7243 405.435C85.2798 392.566 91.6527 379.83 101.002 371.002C121.403 354.542 147.952 353.103 169.443 368.783Z" fill="#CC5C36"/>
<path d="M97.064 253.124C108.154 265.116 111.632 279.084 111.314 295.035C110.738 307.758 104.214 320.242 95.0015 328.999C83.1649 338.982 69.3006 342.983 54.0015 341.999C39.4488 339.955 27.4314 333.251 18.1851 321.738C9.27065 308.936 6.20171 295.311 8.46635 279.82C11.5303 265.86 19.4667 254.148 31.314 246.124C52.9167 233.332 78.7287 236.167 97.064 253.124Z" fill="#E07653"/>
<path d="M297.686 424.689C306.682 431.126 312.823 439.59 315.608 450.357C317.59 463.778 315.983 475.563 308.249 486.876C300.916 496.314 290.912 502.455 278.999 504.001C266.371 505.172 254.889 502.003 244.999 494.001C244.078 493.284 244.078 493.284 243.139 492.552C235.463 485.81 230.537 474.987 229.76 464.907C229.449 450.614 233.106 439.546 242.842 429.005C257.833 414.721 280.593 414.288 297.686 424.689Z" fill="#AB4A2A"/>
<path d="M430.249 377.187C439.138 385.615 443.888 395.61 444.402 407.846C444.629 421.351 439.829 431.73 430.874 441.687C422.857 449.314 412.057 452.879 401.187 453.312C388.94 452.989 378.701 448.585 369.749 440.312C360.325 430.335 357.474 419.194 357.687 405.819C358.636 394.208 363.863 384.716 372.187 376.749C389.402 362.297 413.287 362.922 430.249 377.187Z" fill="#8E4026"/>
<path d="M489.187 269.687C497.072 276.136 502.268 282.823 503.999 293C504.912 304.422 502.481 314.16 494.999 323C487.713 330.035 479.496 333.206 469.437 333.437C458.846 333.097 451.66 330.465 443.999 323C435.664 313.108 433.939 303.79 434.999 291C437.123 281.626 442.857 273.688 450.937 268.562C462.915 262.05 477.748 261.614 489.187 269.687Z" fill="#8E3F25"/>
<path d="M475.879 165.385C481.619 169.751 485.405 175.98 487 182.998C487.935 190.267 486.624 197.082 482.523 203.201C477.784 209.045 472.368 212.452 465 213.998C456.629 214.566 449.299 212.686 442.57 207.522C436.778 201.902 434.872 195.749 434.625 187.873C434.701 180.349 436.612 174.796 441.645 169.154C451.14 160.409 464.563 158.789 475.879 165.385Z" fill="#8E3F25"/>
<path d="M401.312 103.625C406.026 106.264 408.308 109.925 409.999 115C410.774 121.441 409.904 126.722 405.999 132C400.17 136.64 395.251 137.661 387.999 137C382.557 135.186 379.221 131.618 375.999 127C374.15 121.452 374.2 116.059 376.624 110.688C381.627 101.751 392.361 99.5856 401.312 103.625Z" fill="#401B0F"/>
</svg>
