<svg width="21" height="21" viewBox="0 0 21 21" fill="none" xmlns="http://www.w3.org/2000/svg">
<path fill-rule="evenodd" clip-rule="evenodd" d="M7.87505 7C7.87505 6.30381 8.15161 5.63613 8.6439 5.14384C9.13618 4.65156 9.80386 4.375 10.5001 4.375C11.1962 4.375 11.8639 4.65156 12.3562 5.14384C12.8485 5.63613 13.1251 6.30381 13.1251 7H7.87505ZM6.12505 7C6.12505 5.83968 6.58599 4.72688 7.40646 3.90641C8.22693 3.08594 9.33973 2.625 10.5001 2.625C11.6604 2.625 12.7732 3.08594 13.5936 3.90641C14.4141 4.72688 14.8751 5.83968 14.8751 7H17.5001C17.6216 6.99999 17.7418 7.02531 17.853 7.07434C17.9643 7.12337 18.0641 7.19503 18.146 7.28476C18.228 7.37449 18.2904 7.48032 18.3293 7.5955C18.3681 7.71069 18.3825 7.83269 18.3716 7.95375L17.6409 15.988C17.5815 16.6402 17.2805 17.2466 16.797 17.6883C16.3134 18.1299 15.6822 18.3749 15.0273 18.375H5.9728C5.31791 18.3749 4.68672 18.1299 4.20315 17.6883C3.71958 17.2466 3.41855 16.6402 3.35918 15.988L2.62855 7.95375C2.61761 7.83269 2.63201 7.71069 2.67084 7.5955C2.70967 7.48032 2.77206 7.37449 2.85406 7.28476C2.93605 7.19503 3.03584 7.12337 3.14706 7.07434C3.25828 7.02531 3.3785 6.99999 3.50005 7H6.12505Z" fill="#9E9E9E"/>
</svg>
